# xmcd CD database file
#
# Track frame offsets:
#	150
#	9138
#	22010
#	38173
#	52820
#	68308
#	80571
#	92396
#	109136
#	122756
#	138853
#	170653
#	182828
#
# Disc length: 2679 seconds
#
# Revision: 0
# Processed by: cddbd v1.5.2PL0 Copyright (c) Steve Scherf et al.
# Submitted via: CDex 1.51
#
DISCID=970a750d
DTITLE=Junior Brown - Mixed Bag - Semi Crazy
DYEAR=2010
DGENRE=Country
TTITLE0=Gotta Get Up Every Morning
TTITLE1=Darlin' I'll Do Anything You Say
TTITLE2=I Hung It Up
TTITLE3=I Want to Hear It From You
TTITLE4=Semi Crazy (with Red Sovine)
TTITLE5=Aint Gonna' Work Today
TTITLE6=Venom Wearin' Denim
TTITLE7=Parole Board
TTITLE8=Hard Living Hard
TTITLE9=Kansas City Blues
TTITLE10=Surf Medley
TTITLE11=Wild Goose Chase
TTITLE12=Catfish and Collard Greens
EXTD=YEAR: 2010
EXTT0=
EXTT1=
EXTT2=
EXTT3=
EXTT4=
EXTT5=
EXTT6=
EXTT7=
EXTT8=
EXTT9=
EXTT10=
EXTT11=
EXTT12=
PLAYORDER=
